<!DOCTYPE svg PUBLIC "-//W3C//DTD SVG 1.1//EN" "http://www.w3.org/Graphics/SVG/1.1/DTD/svg11.dtd">
<!-- Uploaded to: SVG Repo, www.svgrepo.com, Transformed by: SVG Repo Mixer Tools -->
<svg fill="#000000" width="800px" height="800px" viewBox="-3.2 -3.2 38.40 38.40" id="icon" xmlns="http://www.w3.org/2000/svg" stroke="#000000" stroke-width="0.00032">
<g id="SVGRepo_bgCarrier" stroke-width="0" transform="translate(0,0), scale(1)">
<rect x="-3.2" y="-3.2" width="38.40" height="38.40" rx="19.2" fill="#ffffff" strokewidth="0"/>
</g>
<g id="SVGRepo_tracerCarrier" stroke-linecap="round" stroke-linejoin="round"/>
<g id="SVGRepo_iconCarrier">
<defs>
<style>.cls-1{fill:none;}</style>
</defs>
<title>dashboard</title>
<rect x="24" y="21" width="2" height="5"/>
<rect x="20" y="16" width="2" height="10"/>
<path d="M11,26a5.0059,5.0059,0,0,1-5-5H8a3,3,0,1,0,3-3V16a5,5,0,0,1,0,10Z"/>
<path d="M28,2H4A2.002,2.002,0,0,0,2,4V28a2.0023,2.0023,0,0,0,2,2H28a2.0027,2.0027,0,0,0,2-2V4A2.0023,2.0023,0,0,0,28,2Zm0,9H14V4H28ZM12,4v7H4V4ZM4,28V13H28.0007l.0013,15Z"/>
<rect id="_Transparent_Rectangle_" data-name="&lt;Transparent Rectangle&gt;" class="cls-1" width="32" height="32"/>
</g>
</svg>